<svg width="35" height="36" viewBox="0 0 35 36" fill="none" xmlns="http://www.w3.org/2000/svg">
<path d="M24.7917 13.1273H10.2083C9.82155 13.1273 9.45061 13.281 9.17712 13.5545C8.90363 13.828 8.74999 14.1989 8.74999 14.5857C8.74999 14.9724 8.90363 15.3434 9.17712 15.6169C9.45061 15.8904 9.82155 16.044 10.2083 16.044H24.7917C25.1784 16.044 25.5494 15.8904 25.8229 15.6169C26.0963 15.3434 26.25 14.9724 26.25 14.5857C26.25 14.1989 26.0963 13.828 25.8229 13.5545C25.5494 13.281 25.1784 13.1273 24.7917 13.1273ZM18.9583 18.9607H10.2083C9.82155 18.9607 9.45061 19.1143 9.17712 19.3878C8.90363 19.6613 8.74999 20.0322 8.74999 20.419C8.74999 20.8058 8.90363 21.1767 9.17712 21.4502C9.45061 21.7237 9.82155 21.8773 10.2083 21.8773H18.9583C19.3451 21.8773 19.716 21.7237 19.9895 21.4502C20.263 21.1767 20.4167 20.8058 20.4167 20.419C20.4167 20.0322 20.263 19.6613 19.9895 19.3878C19.716 19.1143 19.3451 18.9607 18.9583 18.9607ZM17.5 2.91901C15.5849 2.91901 13.6885 3.29622 11.9192 4.0291C10.1499 4.76198 8.5422 5.83618 7.18801 7.19037C4.45311 9.92527 2.91665 13.6346 2.91665 17.5023C2.90391 20.8698 4.06989 24.1356 6.21249 26.7336L3.29582 29.6503C3.09347 29.8553 2.95639 30.1157 2.90188 30.3987C2.84738 30.6816 2.87789 30.9743 2.98957 31.2398C3.1107 31.5022 3.30706 31.7227 3.55372 31.8733C3.80039 32.0239 4.08624 32.0978 4.37499 32.0857H17.5C21.3677 32.0857 25.0771 30.5492 27.812 27.8143C30.5469 25.0794 32.0833 21.3701 32.0833 17.5023C32.0833 13.6346 30.5469 9.92527 27.812 7.19037C25.0771 4.45546 21.3677 2.91901 17.5 2.91901ZM17.5 29.169H7.88957L9.24582 27.8128C9.51744 27.5395 9.66989 27.1699 9.66989 26.7846C9.66989 26.3994 9.51744 26.0297 9.24582 25.7565C7.33626 23.8491 6.14712 21.3385 5.881 18.6527C5.61487 15.9668 6.28824 13.2717 7.78636 11.0266C9.28448 8.78156 11.5147 7.12536 14.097 6.34022C16.6793 5.55507 19.4539 5.68955 21.9482 6.72076C24.4425 7.75196 26.5021 9.61607 27.776 11.9955C29.05 14.375 29.4596 17.1225 28.935 19.7701C28.4103 22.4176 26.984 24.8014 24.8989 26.5152C22.8138 28.229 20.199 29.1669 17.5 29.169Z" fill="white"/>
</svg>
