<svg width="25" height="25" viewBox="0 0 25 25" fill="none" xmlns="http://www.w3.org/2000/svg">
<path d="M12.5043 6.08057C8.95952 6.08057 6.08978 8.95343 6.08978 12.495C6.08978 16.0398 8.96265 18.9095 12.5043 18.9095C16.049 18.9095 18.9187 16.0366 18.9187 12.495C18.9187 8.95031 16.0459 6.08057 12.5043 6.08057ZM12.5043 16.6585C10.2033 16.6585 8.34078 14.795 8.34078 12.495C8.34078 10.1951 10.2043 8.33157 12.5043 8.33157C14.8042 8.33157 16.6677 10.1951 16.6677 12.495C16.6688 14.795 14.8053 16.6585 12.5043 16.6585Z" fill="white"/>
<path d="M17.6542 0.0785264C15.3542 -0.0287634 9.65742 -0.0235552 7.35538 0.0785264C5.3325 0.173316 3.54815 0.661849 2.10964 2.10037C-0.294489 4.50449 0.0127975 7.74402 0.0127975 12.495C0.0127975 17.3574 -0.258031 20.5219 2.10964 22.8896C4.52314 25.302 7.80954 24.9864 12.5042 24.9864C17.3208 24.9864 18.9833 24.9895 20.6864 24.3302C23.002 23.4312 24.7499 21.3615 24.9207 17.6438C25.029 15.3428 25.0228 9.64711 24.9207 7.34507C24.7144 2.9566 22.3593 0.295189 17.6542 0.0785264ZM21.2947 21.299C19.7187 22.875 17.5323 22.7344 12.474 22.7344C7.2658 22.7344 5.17729 22.8115 3.65336 21.2834C1.89818 19.5365 2.21588 16.7314 2.21588 12.4783C2.21588 6.7232 1.62527 2.57848 7.40121 2.28265C8.72827 2.23578 9.11889 2.22016 12.4595 2.22016L12.5063 2.25141C18.0573 2.25141 22.4124 1.67017 22.6739 7.44506C22.7332 8.76275 22.7468 9.15858 22.7468 12.4939C22.7457 17.6418 22.8436 19.7428 21.2947 21.299Z" fill="white"/>
<path d="M19.1728 7.32623C20.0007 7.32623 20.6718 6.65514 20.6718 5.8273C20.6718 4.99946 20.0007 4.32837 19.1728 4.32837C18.345 4.32837 17.6739 4.99946 17.6739 5.8273C17.6739 6.65514 18.345 7.32623 19.1728 7.32623Z" fill="white"/>
</svg>
