<svg width="31" height="31" viewBox="0 0 31 31" fill="none" xmlns="http://www.w3.org/2000/svg">
<path d="M30.3109 26.9396L23.9209 20.5499C25.4609 18.3269 26.2312 15.8487 26.2312 13.1166C26.2312 11.3406 25.8864 9.64203 25.1968 8.02131C24.5077 6.40033 23.5761 5.00317 22.4024 3.82948C21.2288 2.6558 19.8318 1.72421 18.2111 1.03502C16.59 0.345636 14.8915 0.000976562 13.1155 0.000976562C11.3396 0.000976562 9.64106 0.345636 8.02034 1.03502C6.39936 1.72421 5.00219 2.6558 3.82851 3.82948C2.6547 5.00317 1.72323 6.40059 1.03398 8.02131C0.344659 9.64223 0 11.3406 0 13.1166C0 14.8925 0.344659 16.5905 1.03398 18.2117C1.72316 19.8324 2.6547 21.2293 3.82851 22.403C5.00219 23.5771 6.39962 24.5083 8.02034 25.1979C9.64125 25.8871 11.3396 26.2317 13.1155 26.2317C15.8482 26.2317 18.326 25.4613 20.5491 23.9215L26.9391 30.2927C27.3862 30.7646 27.9444 31.0006 28.6156 31.0006C29.2614 31.0006 29.8206 30.7646 30.2922 30.2927C30.764 29.821 31.0001 29.262 31.0001 28.6162C31.0003 27.9584 30.7705 27.3992 30.3109 26.9396ZM19.0119 19.0124C17.3787 20.6458 15.4134 21.4625 13.1155 21.4625C10.818 21.4625 8.85269 20.6456 7.21937 19.0124C5.58606 17.3792 4.76944 15.4141 4.76944 13.1162C4.76944 10.8187 5.58626 8.85308 7.21937 7.22009C8.85236 5.58671 10.818 4.77015 13.1155 4.77015C15.4131 4.77015 17.3785 5.58704 19.0119 7.22009C20.6454 8.85308 21.462 10.8187 21.462 13.1162C21.462 15.4141 20.6451 17.3792 19.0119 19.0124Z" fill="white"/>
</svg>
