<svg width="31" height="25" viewBox="0 0 31 25" fill="none" xmlns="http://www.w3.org/2000/svg">
<path d="M30.7693 2.95962C29.6251 3.46154 28.4058 3.79423 27.1347 3.95577C28.4424 3.175 29.4404 1.94808 29.9097 0.469231C28.6904 1.19615 27.3443 1.70962 25.9097 1.99615C24.752 0.763462 23.102 0 21.302 0C17.8097 0 14.9981 2.83462 14.9981 6.30962C14.9981 6.80962 15.0404 7.29038 15.1443 7.74808C9.90006 7.49231 5.25968 4.97885 2.14237 1.15C1.59814 2.09423 1.27891 3.175 1.27891 4.33846C1.27891 6.52308 2.40391 8.45961 4.08083 9.58077C3.06737 9.56154 2.07314 9.26731 1.23083 8.80385C1.23083 8.82308 1.23083 8.84808 1.23083 8.87308C1.23083 11.9385 3.41737 14.4846 6.28468 15.0712C5.77121 15.2115 5.2116 15.2788 4.63083 15.2788C4.22698 15.2788 3.81929 15.2558 3.4366 15.1712C4.25391 17.6692 6.57314 19.5058 9.33083 19.5654C7.18468 21.2442 4.45968 22.2558 1.50968 22.2558C0.992369 22.2558 0.496215 22.2327 6.10352e-05 22.1692C2.79429 23.9712 6.10583 25 9.67698 25C21.2847 25 27.6308 15.3846 27.6308 7.05C27.6308 6.77115 27.6212 6.50192 27.6078 6.23462C28.8597 5.34615 29.9116 4.23654 30.7693 2.95962Z" fill="white"/>
</svg>
