<svg width="35" height="36" viewBox="0 0 35 36" fill="none" xmlns="http://www.w3.org/2000/svg">
<path d="M25.4017 20.9747C24.9693 20.7577 22.8374 19.7074 22.44 19.5639C22.0427 19.4186 21.7539 19.3468 21.4651 19.7809C21.1762 20.2133 20.3448 21.1917 20.091 21.4806C19.8389 21.7694 19.5851 21.8044 19.1528 21.5873C17.8751 21.0787 16.6958 20.3513 15.6678 19.4379C14.7196 18.5614 13.9067 17.5492 13.2557 16.4342C13.0037 16.0001 13.2295 15.7655 13.4465 15.5502C13.6408 15.3559 13.8806 15.0444 14.0959 14.7906C14.2742 14.5714 14.4204 14.328 14.53 14.0677C14.5877 13.948 14.6145 13.8158 14.6081 13.6831C14.6017 13.5505 14.5622 13.4215 14.4932 13.308C14.3847 13.0909 13.5183 10.9572 13.1577 10.089C12.8059 9.24532 12.4488 9.3591 12.181 9.34509C11.9289 9.33284 11.6401 9.32934 11.3513 9.32934C11.1316 9.33547 10.9155 9.38699 10.7167 9.48068C10.5179 9.57436 10.3406 9.70818 10.196 9.87371C9.70596 10.3378 9.31793 10.8989 9.05665 11.5212C8.79536 12.1435 8.66656 12.8134 8.67844 13.4883C8.81899 15.1236 9.43405 16.6822 10.4481 17.9728C12.3069 20.7595 14.8584 23.0149 17.8522 24.5175C18.6598 24.8644 19.4848 25.1694 20.3238 25.4312C21.2083 25.6997 22.1434 25.7579 23.0544 25.601C23.6578 25.4787 24.2292 25.2327 24.7327 24.8784C25.2361 24.5241 25.6606 24.0692 25.9793 23.5425C26.2637 22.8948 26.3513 22.1777 26.2314 21.4806C26.1246 21.2985 25.8358 21.1917 25.4017 20.9747ZM29.7637 5.08289C26.7879 2.10784 22.8324 0.31554 18.6336 0.0396701C14.4348 -0.2362 10.2788 1.02316 6.9394 3.58329C3.59997 6.14342 1.30467 9.82985 0.480822 13.9563C-0.343025 18.0827 0.360724 22.3679 2.46105 26.0141L0 35.0023L9.19656 32.592C11.7402 33.977 14.5902 34.7028 17.4864 34.703H17.4934C20.9243 34.7013 24.2778 33.6826 27.1301 31.7758C29.9823 29.869 32.2054 27.1596 33.5185 23.9899C34.8316 20.8202 35.1757 17.3324 34.5074 13.9672C33.8391 10.6019 32.1883 7.51031 29.7637 5.08287V5.08289ZM25.1549 29.5691C22.8586 31.0084 20.2035 31.7721 17.4934 31.7728H17.4864C14.9044 31.7727 12.37 31.078 10.1488 29.7616L9.6219 29.4501L4.16418 30.8819L5.62051 25.5607L5.27918 25.0146C3.7643 22.5988 2.99979 19.788 3.08233 16.9377C3.16487 14.0874 4.09075 11.3256 5.7429 9.00144C7.39504 6.67733 9.69925 4.89532 12.3642 3.88075C15.0291 2.86617 17.935 2.66459 20.7144 3.30151C23.4939 3.93842 26.0221 5.38522 27.9793 7.45896C29.9365 9.53269 31.2348 12.1402 31.7101 14.9518C32.1854 17.7634 31.8163 20.6529 30.6495 23.2547C29.4827 25.8565 27.5705 28.054 25.1549 29.5691Z" fill="white"/>
</svg>
